<svg width="1728" height="432" viewBox="0 0 1728 432" fill="none" xmlns="http://www.w3.org/2000/svg">
<path d="M501.106 262.861C490.491 256.946 482.225 248.762 476.31 238.268C470.395 227.774 467.437 215.822 467.437 202.33C467.437 188.838 470.395 176.886 476.31 166.392C482.225 155.898 490.491 147.714 501.106 141.799C511.721 135.883 523.755 132.926 537.247 132.926C556.937 132.926 573.549 139.773 587.001 153.508L572.131 167.243C562.853 157.965 551.468 153.346 538.016 153.346C528.617 153.346 520.27 155.412 513.058 159.545C505.846 163.678 500.174 169.471 496.082 176.886C492.03 184.3 489.964 192.809 489.964 202.33C489.964 211.851 491.99 220.36 496.082 227.774C500.134 235.189 505.806 240.983 513.058 245.115C520.311 249.248 528.617 251.314 538.016 251.314C544.742 251.314 551.184 250.058 557.383 247.587C563.542 245.115 568.971 241.59 573.671 237.012L587.973 251.882C574.521 265.09 557.667 271.694 537.449 271.694C523.836 271.694 511.762 268.736 501.147 262.821L501.106 262.861Z" fill="#231F20"/>
<path d="M603.004 174.899H622.088L622.29 189.404C625.977 183.813 630.191 179.68 634.891 177.006C639.591 174.332 644.939 172.995 650.895 172.995C655.473 172.995 659.889 173.724 664.143 175.183C668.398 176.642 671.923 178.667 674.718 181.179L665.197 198.52C660.132 195.076 654.825 193.375 649.355 193.375C641.738 193.375 635.66 196.049 631.163 201.397C626.666 206.745 624.397 213.998 624.397 223.114V269.059H603.045V174.899H603.004Z" fill="#231F20"/>
<path d="M699.19 264.966C692.14 260.833 686.63 255.04 682.7 247.544C678.77 240.049 676.784 231.54 676.784 222.019C676.784 212.497 678.77 203.989 682.7 196.494C686.63 188.998 692.14 183.164 699.19 179.031C706.239 174.898 714.343 172.832 723.499 172.832C730.752 172.832 737.356 174.129 743.312 176.722C749.268 179.315 754.13 182.921 757.817 187.499L758.019 174.898H777.102V269.058H758.019L757.817 256.458C754.13 261.036 749.308 264.642 743.312 267.235C737.315 269.828 730.711 271.124 723.499 271.124C714.343 271.124 706.239 269.058 699.19 264.925V264.966ZM706.158 243.411C711.507 248.922 718.435 251.717 726.943 251.717C735.452 251.717 742.38 248.962 747.728 243.411C753.076 237.861 755.75 230.73 755.75 221.978C755.75 213.227 753.076 206.055 747.728 200.545C742.38 195.035 735.452 192.239 726.943 192.239C718.435 192.239 711.507 194.994 706.158 200.545C700.81 206.096 698.136 213.227 698.136 221.978C698.136 230.73 700.81 237.901 706.158 243.411Z" fill="#231F20"/>
<path d="M820.698 142.487C827.18 136.248 835.446 133.128 845.494 133.128C854.002 133.128 862.024 135.802 869.52 141.15L861.336 156.222C858.662 154.561 856.271 153.346 854.205 152.616C852.138 151.887 849.789 151.482 847.236 151.482C842.658 151.482 839.052 152.94 836.378 155.858C833.704 158.775 832.367 163.232 832.367 169.187V174.9H860.404V193.214H832.367V269.1H811.014V193.214H793.268V174.9H811.014V169.187C811.014 157.64 814.256 148.727 820.738 142.487H820.698Z" fill="#231F20"/>
<path d="M892.574 261.849C887.226 256.136 884.552 247.749 884.552 236.688V193.052H866.806V174.941H884.552V150.348L905.701 148.079V174.941H932.766V193.052H905.701V236.688C905.701 241.51 906.795 245.197 909.024 247.749C911.252 250.302 914.534 251.558 918.829 251.558C922.637 251.558 926.567 250.626 930.66 248.681L936.575 265.819C932.888 267.481 929.444 268.655 926.203 269.344C922.961 270.033 919.355 270.398 915.425 270.398C905.499 270.398 897.882 267.521 892.534 261.808L892.574 261.849Z" fill="#231F20"/>
<path d="M968.542 265.534C960.844 261.401 954.929 255.607 950.715 248.071C946.501 240.576 944.435 231.865 944.435 221.938C944.435 212.012 946.461 203.746 950.553 196.413C954.645 189.08 960.358 183.286 967.691 179.153C975.065 175.02 983.574 172.954 993.216 172.954C1008.45 172.954 1020.4 177.33 1029.07 186.122C1037.74 194.914 1042.04 207.028 1042.04 222.546C1042.04 224.207 1041.92 226.679 1041.67 229.96H966.395C967.286 236.808 970.406 242.277 975.754 246.37C981.102 250.462 987.909 252.447 996.134 252.447C1001.48 252.447 1006.63 251.556 1011.57 249.773C1016.51 247.99 1020.4 245.64 1023.2 242.723L1036.16 255.324C1031.46 260.388 1025.51 264.399 1018.34 267.316C1011.17 270.234 1003.55 271.692 995.566 271.692C985.275 271.692 976.281 269.626 968.583 265.493L968.542 265.534ZM1021.25 213.389C1020.48 206.664 1017.65 201.315 1012.79 197.385C1007.88 193.455 1001.56 191.47 993.824 191.47C986.086 191.47 980.413 193.374 975.713 197.183C971.013 200.991 967.975 206.38 966.557 213.389H1021.25Z" fill="#231F20"/>
<path d="M1075.59 265.049C1068.58 260.997 1063.11 255.244 1059.1 247.789C1055.08 240.334 1053.1 231.745 1053.1 221.94C1053.1 212.135 1055.08 203.545 1059.1 196.09C1063.11 188.635 1068.58 182.923 1075.59 178.83C1082.55 174.779 1090.5 172.712 1099.41 172.712C1106.14 172.712 1112.29 173.806 1117.89 175.954C1123.48 178.101 1128.18 181.099 1131.98 184.908V135.519H1153.34V269.06H1134.25L1134.05 256.46C1130.36 261.038 1125.5 264.644 1119.47 267.237C1113.43 269.83 1106.74 271.126 1099.37 271.126C1090.46 271.126 1082.51 269.101 1075.55 265.008L1075.59 265.049ZM1082.43 243.413C1087.78 248.924 1094.71 251.719 1103.22 251.719C1111.73 251.719 1118.65 248.964 1124 243.413C1129.35 237.863 1132.03 230.732 1132.03 221.98C1132.03 213.229 1129.35 206.057 1124 200.547C1118.65 195.037 1111.73 192.241 1103.22 192.241C1094.71 192.241 1087.78 194.996 1082.43 200.547C1077.09 206.098 1074.41 213.229 1074.41 221.98C1074.41 230.732 1077.09 237.903 1082.43 243.413Z" fill="#231F20"/>
<path d="M1198.71 266.87C1188.91 263.628 1180.16 259.009 1172.42 253.054L1184.05 236.28C1189.64 240.98 1196.41 244.667 1204.35 247.341C1212.29 250.015 1220.39 251.352 1228.66 251.352C1238.3 251.352 1246.08 249.529 1251.91 245.923C1257.75 242.317 1260.7 237.495 1260.7 231.539C1260.7 226.07 1258.03 221.735 1252.68 218.574C1247.33 215.414 1238.91 213.064 1227.32 211.524C1209.13 208.972 1196 204.556 1187.86 198.195C1179.71 191.834 1175.66 182.839 1175.66 171.13C1175.66 163.756 1177.85 157.192 1182.22 151.398C1186.6 145.604 1192.72 141.107 1200.54 137.866C1208.36 134.625 1217.27 133.004 1227.32 133.004C1236.23 133.004 1244.98 134.462 1253.61 137.38C1262.24 140.297 1269.94 144.389 1276.67 149.575L1265.4 165.417C1259.94 161.203 1253.9 158.043 1247.29 155.896C1240.69 153.748 1234.09 152.654 1227.48 152.654C1218.73 152.654 1211.52 154.396 1205.93 157.881C1200.34 161.365 1197.54 165.863 1197.54 171.332C1197.54 176.802 1200.09 180.935 1205.16 184.095C1210.22 187.255 1218.37 189.686 1229.55 191.347C1248.47 194.143 1262.16 198.64 1270.55 204.799C1278.94 210.957 1283.15 219.709 1283.15 231.013C1283.15 239.156 1280.88 246.287 1276.38 252.446C1271.89 258.604 1265.49 263.385 1257.22 266.748C1248.96 270.111 1239.43 271.813 1228.62 271.813C1218.45 271.813 1208.48 270.192 1198.67 266.951L1198.71 266.87Z" fill="#231F20"/>
<path d="M1315.56 261.849C1310.22 256.136 1307.54 247.749 1307.54 236.688V193.052H1289.8V174.941H1307.54V150.348L1328.69 148.079V174.941H1355.76V193.052H1328.69V236.688C1328.69 241.51 1329.78 245.197 1332.01 247.749C1334.24 250.302 1337.52 251.558 1341.82 251.558C1345.63 251.558 1349.56 250.626 1353.65 248.681L1359.56 265.819C1355.88 267.481 1352.43 268.655 1349.19 269.344C1345.95 270.033 1342.34 270.398 1338.41 270.398C1328.49 270.398 1320.87 267.521 1315.52 261.808L1315.56 261.849Z" fill="#231F20"/>
<path d="M1389.83 264.966C1382.78 260.833 1377.27 255.04 1373.34 247.544C1369.41 240.048 1367.42 231.54 1367.42 222.019C1367.42 212.497 1369.41 203.989 1373.34 196.494C1377.27 188.998 1382.78 183.164 1389.83 179.031C1396.88 174.898 1404.98 172.832 1414.14 172.832C1421.39 172.832 1428 174.129 1433.95 176.722C1439.91 179.315 1444.77 182.921 1448.46 187.499L1448.66 174.898H1467.74V269.058H1448.66L1448.46 256.458C1444.77 261.036 1439.95 264.642 1433.95 267.235C1427.96 269.828 1421.35 271.124 1414.14 271.124C1404.98 271.124 1396.88 269.058 1389.83 264.925V264.966ZM1396.8 243.411C1402.15 248.922 1409.07 251.717 1417.58 251.717C1426.09 251.717 1433.02 248.962 1438.37 243.411C1443.72 237.861 1446.39 230.73 1446.39 221.978C1446.39 213.227 1443.72 206.055 1438.37 200.545C1433.02 195.035 1426.09 192.239 1417.58 192.239C1409.07 192.239 1402.15 194.994 1396.8 200.545C1391.45 206.096 1388.78 213.227 1388.78 221.978C1388.78 230.73 1391.45 237.901 1396.8 243.411Z" fill="#231F20"/>
<path d="M1519 268.494L1481.84 174.901H1504.73L1521.14 217.808L1530.87 244.873L1541.73 217.808L1559.47 174.901H1582.36L1523.25 312.535H1499.99L1519.08 268.494H1519Z" fill="#231F20"/>
<path d="M1586.86 257.43L1596.79 241.993C1601 245.316 1605.98 247.868 1611.86 249.732C1617.69 251.596 1623.73 252.487 1629.97 252.487C1636.21 252.487 1640.59 251.555 1643.87 249.732C1647.19 247.909 1648.81 245.235 1648.81 241.831C1648.81 238.428 1647.19 235.997 1643.95 234.214C1640.71 232.431 1635.48 231.175 1628.23 230.406C1615.91 229.271 1606.39 226.192 1599.74 221.168C1593.1 216.144 1589.74 209.58 1589.74 201.436C1589.74 195.724 1591.44 190.7 1594.88 186.364C1598.33 182.029 1603.11 178.666 1609.27 176.276C1615.42 173.885 1622.52 172.67 1630.54 172.67C1645.04 172.67 1657.48 176.276 1667.89 183.528L1658.53 198.762C1650.15 193.414 1641.11 190.74 1631.47 190.74C1624.74 190.74 1619.6 191.672 1616.03 193.495C1612.47 195.359 1610.68 197.993 1610.68 201.396C1610.68 204.435 1612.18 206.825 1615.18 208.527C1618.18 210.228 1623.08 211.484 1629.97 212.254C1643.95 213.794 1654.12 216.914 1660.48 221.614C1666.84 226.313 1670 233.12 1670 241.993C1670 247.828 1668.3 252.973 1664.94 257.349C1661.57 261.725 1656.79 265.169 1650.63 267.64C1644.47 270.112 1637.38 271.367 1629.36 271.367C1613.48 271.367 1599.3 266.749 1586.86 257.47V257.43Z" fill="#231F20"/>
<path d="M348.879 211.296C346.696 142.148 296.62 85.1272 230.781 72.5956C221.93 70.8922 212.836 70 203.5 70C123.152 70 58 135.376 58 216C58 296.624 123.152 362 203.5 362C212.836 362 221.93 361.067 230.781 359.404C164.942 346.873 114.866 289.852 112.684 220.704C112.603 219.163 112.562 217.582 112.562 216C112.562 214.418 112.562 212.877 112.684 211.296C115.109 163.075 154.838 124.75 203.5 124.75C212.998 124.75 222.173 126.21 230.781 128.927C267.682 140.567 294.437 175.12 294.437 216C294.437 256.88 267.682 291.433 230.781 303.073C239.39 305.79 248.565 307.25 258.062 307.25C306.724 307.25 346.454 268.925 348.879 220.704C348.919 219.123 349 217.582 349 216C349 214.418 348.919 212.877 348.879 211.296Z" fill="#6B3795"/>
<path d="M258.5 70C249.164 70 240.07 70.9328 231.219 72.5956C297.057 85.1272 347.134 142.148 349.316 211.296C349.397 212.837 349.437 214.418 349.437 216C349.437 217.582 349.437 219.123 349.316 220.704C346.891 268.925 307.162 307.25 258.5 307.25C249.002 307.25 239.827 305.79 231.219 303.073C194.318 291.433 167.562 256.88 167.562 216C167.562 175.12 194.318 140.567 231.219 128.927C222.61 126.21 213.435 124.75 203.938 124.75C155.276 124.75 115.546 163.075 113.121 211.296C113.081 212.877 113 214.418 113 216C113 217.582 113.081 219.123 113.121 220.704C115.304 289.852 165.38 346.873 231.219 359.404C240.07 361.108 249.164 362 258.5 362C338.848 362 404 296.624 404 216C404 135.376 338.848 70 258.5 70Z" fill="#E75A69"/>
</svg>
