<svg width="346" height="292" viewBox="58 70 346 292" fill="none" xmlns="http://www.w3.org/2000/svg">
<path d="M348.879 211.296C346.696 142.148 296.62 85.1272 230.781 72.5956C221.93 70.8922 212.836 70 203.5 70C123.152 70 58 135.376 58 216C58 296.624 123.152 362 203.5 362C212.836 362 221.93 361.067 230.781 359.404C164.942 346.873 114.866 289.852 112.684 220.704C112.603 219.163 112.562 217.582 112.562 216C112.562 214.418 112.562 212.877 112.684 211.296C115.109 163.075 154.838 124.75 203.5 124.75C212.998 124.75 222.173 126.21 230.781 128.927C267.682 140.567 294.437 175.12 294.437 216C294.437 256.88 267.682 291.433 230.781 303.073C239.39 305.79 248.565 307.25 258.062 307.25C306.724 307.25 346.454 268.925 348.879 220.704C348.919 219.123 349 217.582 349 216C349 214.418 348.919 212.877 348.879 211.296Z" fill="#6B3795"/>
<path d="M258.5 70C249.164 70 240.07 70.9328 231.219 72.5956C297.057 85.1272 347.134 142.148 349.316 211.296C349.397 212.837 349.437 214.418 349.437 216C349.437 217.582 349.437 219.123 349.316 220.704C346.891 268.925 307.162 307.25 258.5 307.25C249.002 307.25 239.827 305.79 231.219 303.073C194.318 291.433 167.562 256.88 167.562 216C167.562 175.12 194.318 140.567 231.219 128.927C222.61 126.21 213.435 124.75 203.938 124.75C155.276 124.75 115.546 163.075 113.121 211.296C113.081 212.877 113 214.418 113 216C113 217.582 113.081 219.123 113.121 220.704C115.304 289.852 165.38 346.873 231.219 359.404C240.07 361.108 249.164 362 258.5 362C338.848 362 404 296.624 404 216C404 135.376 338.848 70 258.5 70Z" fill="#E75A69"/>
</svg>
